<mxfile host="Electron" modified="2024-07-04T21:57:04.159Z" agent="Mozilla/5.0 (Macintosh; Intel Mac OS X 10_15_7) AppleWebKit/537.36 (KHTML, like Gecko) draw.io/24.6.4 Chrome/124.0.6367.207 Electron/30.0.6 Safari/537.36" etag="eZRjWfH5AGGFHJSE6kl-" version="24.6.4" type="device">
  <diagram name="Page-1" id="FOT01fklMX9fV9p3AdlV">
    <mxGraphModel dx="875" dy="778" grid="0" gridSize="10" guides="1" tooltips="1" connect="1" arrows="1" fold="1" page="1" pageScale="1" pageWidth="827" pageHeight="1169" math="0" shadow="0">
      <root>
        <mxCell id="0" />
        <mxCell id="1" parent="0" />
        <mxCell id="Id7HsaQSBd7CaPy1cG7a-1" value="" style="endArrow=none;html=1;rounded=0;" edge="1" parent="1">
          <mxGeometry width="50" height="50" relative="1" as="geometry">
            <mxPoint x="120" y="320" as="sourcePoint" />
            <mxPoint x="280" y="320" as="targetPoint" />
          </mxGeometry>
        </mxCell>
        <mxCell id="Id7HsaQSBd7CaPy1cG7a-2" value="" style="endArrow=none;html=1;rounded=0;" edge="1" parent="1">
          <mxGeometry width="50" height="50" relative="1" as="geometry">
            <mxPoint x="120" y="360" as="sourcePoint" />
            <mxPoint x="280" y="360" as="targetPoint" />
          </mxGeometry>
        </mxCell>
        <mxCell id="Id7HsaQSBd7CaPy1cG7a-3" value="" style="endArrow=none;html=1;rounded=0;" edge="1" parent="1">
          <mxGeometry width="50" height="50" relative="1" as="geometry">
            <mxPoint x="280" y="200" as="sourcePoint" />
            <mxPoint x="280" y="320" as="targetPoint" />
          </mxGeometry>
        </mxCell>
        <mxCell id="Id7HsaQSBd7CaPy1cG7a-4" value="" style="endArrow=none;html=1;rounded=0;" edge="1" parent="1">
          <mxGeometry width="50" height="50" relative="1" as="geometry">
            <mxPoint x="320" y="200" as="sourcePoint" />
            <mxPoint x="320" y="320" as="targetPoint" />
          </mxGeometry>
        </mxCell>
        <mxCell id="Id7HsaQSBd7CaPy1cG7a-5" value="" style="endArrow=none;html=1;rounded=0;" edge="1" parent="1">
          <mxGeometry width="50" height="50" relative="1" as="geometry">
            <mxPoint x="320" y="320" as="sourcePoint" />
            <mxPoint x="480" y="320" as="targetPoint" />
          </mxGeometry>
        </mxCell>
        <mxCell id="Id7HsaQSBd7CaPy1cG7a-6" value="" style="endArrow=none;html=1;rounded=0;" edge="1" parent="1">
          <mxGeometry width="50" height="50" relative="1" as="geometry">
            <mxPoint x="320" y="360" as="sourcePoint" />
            <mxPoint x="480" y="360" as="targetPoint" />
          </mxGeometry>
        </mxCell>
        <mxCell id="Id7HsaQSBd7CaPy1cG7a-7" value="" style="endArrow=none;html=1;rounded=0;" edge="1" parent="1">
          <mxGeometry width="50" height="50" relative="1" as="geometry">
            <mxPoint x="280" y="360" as="sourcePoint" />
            <mxPoint x="280" y="480" as="targetPoint" />
          </mxGeometry>
        </mxCell>
        <mxCell id="Id7HsaQSBd7CaPy1cG7a-8" value="" style="endArrow=none;html=1;rounded=0;" edge="1" parent="1">
          <mxGeometry width="50" height="50" relative="1" as="geometry">
            <mxPoint x="320" y="360" as="sourcePoint" />
            <mxPoint x="320" y="480" as="targetPoint" />
          </mxGeometry>
        </mxCell>
        <mxCell id="Id7HsaQSBd7CaPy1cG7a-14" value="" style="group" vertex="1" connectable="0" parent="1">
          <mxGeometry x="327" y="282" width="82" height="25" as="geometry" />
        </mxCell>
        <mxCell id="Id7HsaQSBd7CaPy1cG7a-9" value="" style="rounded=0;whiteSpace=wrap;html=1;" vertex="1" parent="Id7HsaQSBd7CaPy1cG7a-14">
          <mxGeometry width="82" height="25" as="geometry" />
        </mxCell>
        <mxCell id="Id7HsaQSBd7CaPy1cG7a-10" value="" style="ellipse;whiteSpace=wrap;html=1;aspect=fixed;fillColor=#d80073;fontColor=#ffffff;strokeColor=#A50040;" vertex="1" parent="Id7HsaQSBd7CaPy1cG7a-14">
          <mxGeometry x="7" y="3" width="19" height="19" as="geometry" />
        </mxCell>
        <mxCell id="Id7HsaQSBd7CaPy1cG7a-12" value="" style="ellipse;whiteSpace=wrap;html=1;aspect=fixed;fillColor=#f0a30a;fontColor=#000000;strokeColor=#BD7000;" vertex="1" parent="Id7HsaQSBd7CaPy1cG7a-14">
          <mxGeometry x="31" y="3" width="19" height="19" as="geometry" />
        </mxCell>
        <mxCell id="Id7HsaQSBd7CaPy1cG7a-13" value="" style="ellipse;whiteSpace=wrap;html=1;aspect=fixed;fillColor=#008a00;fontColor=#ffffff;strokeColor=#005700;" vertex="1" parent="Id7HsaQSBd7CaPy1cG7a-14">
          <mxGeometry x="55" y="3" width="19" height="19" as="geometry" />
        </mxCell>
        <mxCell id="Id7HsaQSBd7CaPy1cG7a-20" value="" style="group;rotation=90;" vertex="1" connectable="0" parent="1">
          <mxGeometry x="216" y="398" width="82" height="25" as="geometry" />
        </mxCell>
        <mxCell id="Id7HsaQSBd7CaPy1cG7a-21" value="" style="rounded=0;whiteSpace=wrap;html=1;rotation=90;" vertex="1" parent="Id7HsaQSBd7CaPy1cG7a-20">
          <mxGeometry width="82" height="25" as="geometry" />
        </mxCell>
        <mxCell id="Id7HsaQSBd7CaPy1cG7a-22" value="" style="ellipse;whiteSpace=wrap;html=1;aspect=fixed;fillColor=#d80073;fontColor=#ffffff;strokeColor=#A50040;rotation=90;" vertex="1" parent="Id7HsaQSBd7CaPy1cG7a-20">
          <mxGeometry x="32" y="-21" width="19" height="19" as="geometry" />
        </mxCell>
        <mxCell id="Id7HsaQSBd7CaPy1cG7a-23" value="" style="ellipse;whiteSpace=wrap;html=1;aspect=fixed;fillColor=#f0a30a;fontColor=#000000;strokeColor=#BD7000;rotation=90;" vertex="1" parent="Id7HsaQSBd7CaPy1cG7a-20">
          <mxGeometry x="32" y="3" width="19" height="19" as="geometry" />
        </mxCell>
        <mxCell id="Id7HsaQSBd7CaPy1cG7a-24" value="" style="ellipse;whiteSpace=wrap;html=1;aspect=fixed;fillColor=#008a00;fontColor=#ffffff;strokeColor=#005700;rotation=90;" vertex="1" parent="Id7HsaQSBd7CaPy1cG7a-20">
          <mxGeometry x="32" y="27" width="19" height="19" as="geometry" />
        </mxCell>
        <mxCell id="Id7HsaQSBd7CaPy1cG7a-27" value="" style="shape=parallelogram;perimeter=parallelogramPerimeter;whiteSpace=wrap;html=1;fixedSize=1;" vertex="1" parent="1">
          <mxGeometry x="197" y="331" width="74" height="19" as="geometry" />
        </mxCell>
        <mxCell id="Id7HsaQSBd7CaPy1cG7a-28" value="" style="shape=parallelogram;perimeter=parallelogramPerimeter;whiteSpace=wrap;html=1;fixedSize=1;" vertex="1" parent="1">
          <mxGeometry x="127" y="331" width="74" height="19" as="geometry" />
        </mxCell>
        <mxCell id="Id7HsaQSBd7CaPy1cG7a-29" value="" style="shape=parallelogram;perimeter=parallelogramPerimeter;whiteSpace=wrap;html=1;fixedSize=1;rotation=90;" vertex="1" parent="1">
          <mxGeometry x="262" y="224" width="74" height="19" as="geometry" />
        </mxCell>
        <mxCell id="Id7HsaQSBd7CaPy1cG7a-30" value="" style="shape=parallelogram;perimeter=parallelogramPerimeter;whiteSpace=wrap;html=1;fixedSize=1;rotation=90;" vertex="1" parent="1">
          <mxGeometry x="262" y="300" width="74" height="19" as="geometry" />
        </mxCell>
      </root>
    </mxGraphModel>
  </diagram>
</mxfile>
